<svg width="59" height="56" viewBox="0 0 59 56" fill="none" xmlns="http://www.w3.org/2000/svg">
<g opacity="0.5">
<path d="M17.7215 4.33761C18.1927 3.88397 18.469 3.2654 18.4924 2.61226C18.5159 1.95912 18.2845 1.3224 17.847 0.836284C17.4096 0.35017 16.8003 0.0526208 16.1475 0.00633685C15.4947 -0.0399471 14.8494 0.168649 14.3476 0.58817L8.4887 5.84747C6.01044 8.07696 3.95309 9.92309 2.54223 11.5977C1.0573 13.3632 0 15.2564 0 17.5968C0 19.9339 1.0573 21.8271 2.54223 23.5892C3.95645 25.2672 6.01044 27.1167 8.4887 29.3428L14.3476 34.6021C14.5929 34.8308 14.8814 35.0084 15.1962 35.1245C15.511 35.2405 15.8458 35.2928 16.181 35.2782C16.5162 35.2636 16.8452 35.1824 17.1487 35.0394C17.4521 34.8964 17.724 34.6944 17.9484 34.4452C18.1729 34.1961 18.3453 33.9048 18.4557 33.5883C18.5661 33.2719 18.6123 32.9366 18.5914 32.6021C18.5706 32.2677 18.4833 31.9407 18.3345 31.6403C18.1857 31.3399 17.9785 31.0722 17.7249 30.8527L12.0142 25.7178C9.3608 23.3336 7.56946 21.7162 6.41451 20.3442C5.30333 19.0226 5.05753 18.2526 5.05753 17.5968C5.05753 16.9377 5.29997 16.1677 6.41451 14.8461C7.57282 13.4708 9.3608 11.8567 12.0142 9.47249L17.7215 4.33761ZM41.0933 21.5245C41.3153 21.2781 41.5838 21.0778 41.8835 20.9352C42.1831 20.7925 42.508 20.7102 42.8395 20.693C43.171 20.6759 43.5026 20.7241 43.8154 20.8351C44.1282 20.946 44.4161 21.1174 44.6625 21.3395L50.5113 26.5955C52.9896 28.825 55.0469 30.6745 56.4578 32.3491C57.9427 34.1112 59 36.0078 59 38.3448C59 40.6819 57.9427 42.5785 56.4578 44.3406C55.0435 46.0152 52.9896 47.8647 50.5113 50.0908L44.6591 55.3535C44.4124 55.575 44.1244 55.7457 43.8116 55.856C43.4987 55.9663 43.1672 56.014 42.8359 55.9964C42.5047 55.9788 42.1801 55.8961 41.8808 55.7532C41.5815 55.6103 41.3133 55.4099 41.0916 55.1635C40.8698 54.9171 40.6988 54.6295 40.5884 54.3171C40.4779 54.0047 40.4302 53.6736 40.4478 53.3428C40.4655 53.0119 40.5482 52.6878 40.6913 52.3889C40.8344 52.09 41.0351 51.8222 41.2818 51.6007L46.9926 46.4692C49.6459 44.0817 51.4373 42.4675 52.5922 41.0922C53.7034 39.774 53.9492 39.0006 53.9492 38.3448C53.9492 37.6891 53.7068 36.9157 52.5922 35.5975C51.4339 34.2188 49.6459 32.6047 46.9926 30.2205L41.2852 25.0856C40.7874 24.6383 40.4879 24.0119 40.4526 23.344C40.4172 22.6762 40.6489 22.0218 41.0966 21.5245" fill="black"/>
<path d="M36.8405 0.598258C37.1611 0.683388 37.4618 0.830782 37.7254 1.03202C37.989 1.23325 38.2103 1.48439 38.3766 1.77107C38.543 2.05775 38.6512 2.37435 38.695 2.7028C38.7387 3.03124 38.7173 3.36508 38.6318 3.68524L25.2068 54.1261C25.0345 54.7727 24.612 55.3244 24.0323 55.6599C23.4526 55.9954 22.7632 56.0872 22.1157 55.9151C21.4683 55.743 20.9158 55.321 20.5799 54.7421C20.2439 54.1632 20.152 53.4747 20.3244 52.8281L33.7494 2.38723C33.8346 2.06701 33.9822 1.76671 34.1837 1.50347C34.3852 1.24024 34.6367 1.01924 34.9238 0.853107C35.2108 0.686971 35.5279 0.578952 35.8567 0.535224C36.1856 0.491496 36.5199 0.512915 36.8405 0.598258Z" fill="black"/>
</g>
</svg>
